<?xml version="1.0" encoding="utf-8"?>
<!-- Generator: Adobe Illustrator 21.1.0, SVG Export Plug-In . SVG Version: 6.00 Build 0)  -->
<svg version="1.1" id="Livello_1" xmlns="http://www.w3.org/2000/svg" xmlns:xlink="http://www.w3.org/1999/xlink" x="0px" y="0px"
	 viewBox="0 0 170 130" style="enable-background:new 0 0 170 130;" xml:space="preserve">
<style type="text/css">
	.st0{fill:#FFFFFF;}
	.st1{fill:#1B3654;}
	.st2{fill:url(#SVGID_1_);}
	.st3{fill:#40AF6B;}
</style>
<line class="st0" x1="-72" y1="175" x2="-72" y2="-45"/>
<g>
	<path class="st1" d="M159.6,40.4c-4.1-7.6-10.1-14.4-17.6-20.3c-7.5-5.8-16.2-10.4-25.9-13.5c-10-3.3-20.6-4.9-31.6-4.9
		C73.6,1.7,63,3.3,53,6.6c-9.7,3.2-18.4,7.7-25.9,13.5C19.6,26,13.6,32.8,9.5,40.4C5.2,48.3,3,56.7,3,65.4c0,8.7,2.2,17.1,6.5,25
		c4.1,7.6,10.1,14.4,17.6,20.3c7.5,5.8,16.2,10.4,25.9,13.5c10,3.3,20.6,4.9,31.6,4.9s21.6-1.7,31.6-4.9c9.7-3.2,18.4-7.7,25.9-13.5
		c7.5-5.8,13.4-12.7,17.6-20.3c4.3-7.9,6.5-16.3,6.5-25C166.1,56.7,163.9,48.3,159.6,40.4z M84.5,127C40.7,127,5.2,99.4,5.2,65.4
		S40.7,3.9,84.5,3.9s79.3,27.6,79.3,61.5S128.3,127,84.5,127z"/>
	<linearGradient id="SVGID_1_" gradientUnits="userSpaceOnUse" x1="46.5965" y1="104.5057" x2="46.5965" y2="44.8222">
		<stop  offset="0.25" style="stop-color:#40AF6B"/>
		<stop  offset="0.75" style="stop-color:#1B3654"/>
	</linearGradient>
	<path class="st2" d="M56.2,54.1l0-0.3c-0.2-1.1-0.3-1.9-0.6-3c-0.2-0.6-0.9-2.7-1.6-3.9c-0.7-1.1-1.5-1.9-2.1-2.1
		c-0.7-0.2-1.7,0.2-2.1,0.8c-0.3,0.5-0.1,1.5,0,2.4c0,0.1,0,0.3,0.1,0.4c0.1,0.5,0.2,1,0.4,1.6c0.2,0.5,0.3,1.1,0.4,1.7
		c0.3,1.6,0.5,3,0.6,4.3c0.1,1.3,0.2,2.9,0.2,5.1l0,0.2c0,1.6,0,3.1-0.1,4.7c-0.1,1.9-0.5,3.9-0.7,5.3c-0.3,1.6-0.5,3-1,4.5
		c-0.5,1.6-1,3.1-1.6,4.5c-0.6,1.4-1.3,2.8-2.1,4.3l-0.2,0.4c-0.9,1.6-2,3.6-2.9,5.2l-0.1,0.2c-0.5,0.9-1,1.7-1.4,2.5
		c-0.4,0.7-0.7,1.3-1.1,1.9l-0.4,0.7c-0.7,1.2-1.3,2.4-1.8,3.4l-0.2,0.4c-0.5,0.9-0.9,1.8-1.1,2.5c-0.2,0.8-0.3,1.8,0,2.2
		c0.1,0.1,0.2,0.2,0.4,0.2c0.3,0,0.6-0.2,1.1-0.6c0.9-0.7,2.3-2,3.4-3.3c1.3-1.6,2.9-3.7,4.2-5.5c1.2-1.8,2.6-3.8,3.8-6.1
		c1.3-2.3,2.6-5,3.5-7.3c1-2.6,1.8-5.2,2.3-6.9c0.5-2.1,0.7-3.5,0.9-5.3c0.2-1.8,0.4-4,0.5-5.9c0.1-1.8,0-3.3-0.1-5
		C56.5,57.2,56.4,55.5,56.2,54.1z"/>
	<path class="st1" d="M64.1,48.1c1.7,1,2.9,1.7,4.2,2.6c1.3,0.9,2.6,1.9,3.7,3l0.1,0.1c1,0.9,1.8,1.6,2.4,2.6l0.1,0.2
		c0.6,1,1.3,2.1,1.3,3.2c-0.1,1.1-0.8,2.6-1.9,4.1c-1,1.3-2.4,2.5-3.5,3.4c-1.3,1-2.8,1.8-4.6,2.6c-1,0.5-2.3,1-3.5,1.4
		c-1,0.4-2,0.8-2.6,1.1h0c-1.3,0.6-1.6,0.9-1.5,1.3c0,0.1,0.1,0.5,0.4,0.8c0.2,0.2,0.5,0.3,0.9,0.3c0.1,0,0.3,0,0.4,0
		c1.3-0.2,4.3-1.2,6.4-2.1c2.4-1,4.4-2,6.1-3.1c2-1.3,3.9-2.8,5.2-4.1c1.7-1.7,2.7-3.2,3.1-4.4c0.5-1.5,0.4-2.8-0.2-4.3
		c-0.8-1.7-2.6-3.7-3.7-4.7c-1.4-1.4-3.1-2.4-5-3.7l-0.2-0.2c-2.4-1.5-4.7-2.9-7.1-4.2c-2.4-1.3-5.3-2.6-8.7-4.2
		c-3.4-1.5-7.2-3.1-9.9-4.1c-3.2-1.2-6.3-2.2-8.4-2.8c-2.1-0.5-3.3-0.6-4.4-0.6c-1.1,0-2,0.4-2.1,0.7c0,0.1,0,0.1,0,0.2
		c0.1,0.1,0.2,0.2,0.6,0.3c0.2,0.1,0.5,0.2,0.8,0.3c0.4,0.2,0.9,0.3,1.5,0.5c0.8,0.3,1.7,0.6,2.8,1c2,0.8,4.7,1.9,7,2.8
		c2.3,1,5.3,2.3,7.8,3.3c0.6,0.2,1.1,0.5,1.5,0.7c1.5,0.6,2.6,1.1,4.1,1.9c2.1,1.1,4.9,2.7,6.6,3.7L64.1,48.1z"/>
	<path class="st1" d="M55.8,36.9c0.6,0.3,1.2,0.4,1.7,0.4c0.6,0,1.1-0.2,1.6-0.5c0.9-0.6,1.5-1.7,1.5-3c0-1.3-0.4-2.7-1.2-4
		c-0.8-1.3-1.9-2.3-3.1-2.8c-1.2-0.5-2.4-0.5-3.4,0.1c-0.9,0.6-1.5,1.7-1.5,3c0,1.3,0.4,2.7,1.2,4C53.5,35.4,54.6,36.4,55.8,36.9z"
		/>
	<g>
		<path class="st3" d="M62.5,83.4c0-0.1,0-0.1,0.1-0.2c0-0.1,0-0.2,0-0.3c0-0.1,0-0.2,0-0.3c0-0.1,0-0.2-0.1-0.2
			c0-0.1-0.1-0.1-0.1-0.1c0,0-0.1,0-0.1,0h-2.6V80h2.7c0,0,0.1,0,0.1,0c0,0,0.1-0.1,0.1-0.1c0-0.1,0-0.1,0.1-0.2c0-0.1,0-0.2,0-0.3
			c0-0.1,0-0.2,0-0.3c0-0.1,0-0.2-0.1-0.2c0-0.1-0.1-0.1-0.1-0.1c0,0-0.1,0-0.1,0h-3.9c-0.1,0-0.3,0-0.4,0.1
			c-0.1,0.1-0.1,0.2-0.1,0.4v7.6c0,0,0,0.1,0,0.1c0,0,0.1,0.1,0.1,0.1c0.1,0,0.2,0,0.3,0.1c0.1,0,0.2,0,0.4,0c0.2,0,0.3,0,0.4,0
			c0.1,0,0.2,0,0.3-0.1c0.1,0,0.1-0.1,0.1-0.1c0,0,0-0.1,0-0.1v-3.1h2.6c0,0,0.1,0,0.1,0C62.5,83.5,62.5,83.5,62.5,83.4z"/>
		<path class="st3" d="M65.2,80.7c-0.1,0-0.2,0-0.4,0c-0.2,0-0.3,0-0.4,0c-0.1,0-0.2,0-0.2,0.1c-0.1,0-0.1,0.1-0.1,0.1
			c0,0,0,0.1,0,0.1v5.8c0,0,0,0.1,0,0.1s0.1,0.1,0.1,0.1c0.1,0,0.1,0,0.2,0c0.1,0,0.2,0,0.4,0c0.2,0,0.3,0,0.4,0c0.1,0,0.2,0,0.2,0
			c0.1,0,0.1,0,0.1-0.1c0,0,0-0.1,0-0.1V81c0,0,0-0.1,0-0.1c0,0-0.1-0.1-0.1-0.1C65.4,80.7,65.4,80.7,65.2,80.7z"/>
		<path class="st3" d="M67.7,86.9c0.2,0,0.3,0.1,0.5,0.1c0.2,0,0.4,0,0.6,0c0.4,0,0.7,0,1-0.1c0.3-0.1,0.6-0.2,0.8-0.4
			c0.2-0.2,0.4-0.4,0.5-0.6c0.1-0.3,0.2-0.5,0.2-0.9c0-0.3,0-0.5-0.1-0.7c-0.1-0.2-0.2-0.4-0.3-0.5c-0.1-0.1-0.3-0.3-0.5-0.4
			c-0.2-0.1-0.3-0.2-0.5-0.2c-0.2-0.1-0.3-0.1-0.5-0.2c-0.2-0.1-0.3-0.1-0.5-0.2c-0.1-0.1-0.2-0.1-0.3-0.2c-0.1-0.1-0.1-0.2-0.1-0.3
			c0-0.1,0-0.2,0.1-0.2c0-0.1,0.1-0.1,0.2-0.2c0.1-0.1,0.2-0.1,0.3-0.1c0.1,0,0.2,0,0.4,0c0.2,0,0.4,0,0.6,0.1
			c0.2,0,0.3,0.1,0.4,0.1c0.1,0.1,0.2,0.1,0.3,0.1c0.1,0,0.1,0.1,0.2,0.1c0,0,0.1,0,0.1,0c0,0,0,0,0.1-0.1c0,0,0-0.1,0-0.2
			c0-0.1,0-0.2,0-0.3c0-0.1,0-0.2,0-0.2c0-0.1,0-0.1,0-0.2c0,0,0-0.1,0-0.1c0,0,0-0.1-0.1-0.1c0,0-0.1-0.1-0.2-0.1
			c-0.1,0-0.2-0.1-0.4-0.1c-0.1,0-0.3-0.1-0.5-0.1c-0.2,0-0.3,0-0.5,0c-0.4,0-0.7,0-1,0.1c-0.3,0.1-0.5,0.2-0.7,0.4
			c-0.2,0.2-0.4,0.4-0.5,0.6C67,81.9,67,82.2,67,82.4c0,0.3,0,0.5,0.1,0.7c0.1,0.2,0.2,0.4,0.3,0.5c0.1,0.1,0.3,0.3,0.4,0.4
			c0.2,0.1,0.3,0.2,0.5,0.3c0.2,0.1,0.3,0.1,0.5,0.2c0.2,0.1,0.3,0.1,0.4,0.2c0.1,0.1,0.2,0.2,0.3,0.2c0.1,0.1,0.1,0.2,0.1,0.3
			c0,0.1,0,0.2-0.1,0.3c0,0.1-0.1,0.2-0.2,0.2c-0.1,0.1-0.2,0.1-0.3,0.1c-0.1,0-0.2,0-0.4,0c-0.2,0-0.4,0-0.6-0.1
			c-0.2-0.1-0.3-0.1-0.5-0.2c-0.1-0.1-0.3-0.1-0.3-0.2c-0.1-0.1-0.2-0.1-0.2-0.1c0,0-0.1,0-0.1,0c0,0,0,0-0.1,0.1c0,0,0,0.1,0,0.2
			c0,0.1,0,0.2,0,0.3c0,0.2,0,0.3,0,0.4c0,0.1,0.1,0.2,0.1,0.2c0,0,0.1,0.1,0.2,0.1C67.4,86.8,67.6,86.9,67.7,86.9z"/>
		<path class="st3" d="M74.2,86.8c0,0,0-0.1,0-0.1V81c0,0,0-0.1,0-0.1c0,0-0.1-0.1-0.1-0.1c-0.1,0-0.1,0-0.2-0.1c-0.1,0-0.2,0-0.4,0
			c-0.2,0-0.3,0-0.4,0c-0.1,0-0.2,0-0.2,0.1c-0.1,0-0.1,0.1-0.1,0.1c0,0,0,0.1,0,0.1v5.8c0,0,0,0.1,0,0.1s0.1,0.1,0.1,0.1
			c0.1,0,0.1,0,0.2,0c0.1,0,0.2,0,0.4,0c0.2,0,0.3,0,0.4,0c0.1,0,0.2,0,0.2,0C74.1,86.9,74.2,86.9,74.2,86.8z"/>
		<path class="st3" d="M81.7,83.8c0-0.5-0.1-1-0.2-1.4c-0.1-0.4-0.3-0.7-0.6-1c-0.2-0.3-0.6-0.5-0.9-0.6c-0.4-0.1-0.8-0.2-1.3-0.2
			c-0.5,0-1,0.1-1.4,0.2c-0.4,0.2-0.7,0.4-1,0.7c-0.3,0.3-0.5,0.6-0.6,1.1c-0.1,0.4-0.2,0.9-0.2,1.4c0,0.5,0.1,1,0.2,1.4
			c0.1,0.4,0.3,0.7,0.6,1c0.3,0.3,0.6,0.5,0.9,0.6c0.4,0.1,0.8,0.2,1.3,0.2c0.5,0,1-0.1,1.4-0.2c0.4-0.2,0.7-0.4,1-0.7
			c0.3-0.3,0.5-0.6,0.6-1.1S81.7,84.3,81.7,83.8z M79.9,84.7c-0.1,0.2-0.1,0.4-0.3,0.6c-0.1,0.2-0.3,0.3-0.4,0.4s-0.4,0.1-0.6,0.1
			c-0.3,0-0.5,0-0.7-0.1c-0.2-0.1-0.3-0.2-0.4-0.4c-0.1-0.2-0.2-0.4-0.2-0.6c0-0.2-0.1-0.5-0.1-0.8c0-0.3,0-0.6,0.1-0.8
			c0.1-0.2,0.1-0.4,0.3-0.6c0.1-0.2,0.3-0.3,0.4-0.4c0.2-0.1,0.4-0.1,0.6-0.1c0.3,0,0.5,0,0.7,0.1c0.2,0.1,0.3,0.2,0.4,0.4
			c0.1,0.2,0.2,0.4,0.2,0.6c0,0.2,0.1,0.5,0.1,0.8C80,84.1,80,84.4,79.9,84.7z"/>
		<path class="st3" d="M86.2,82c0.1,0,0.1-0.1,0.2-0.2c0-0.1,0.1-0.3,0.1-0.5c0-0.1,0-0.2,0-0.3c0-0.1,0-0.2,0-0.2
			c0,0,0-0.1-0.1-0.1c0,0-0.1,0-0.1,0h-1.3v-1.3c0,0,0-0.1,0-0.1c0,0-0.1-0.1-0.1-0.1s-0.1,0-0.2-0.1c-0.1,0-0.2,0-0.4,0
			c-0.2,0-0.3,0-0.4,0c-0.1,0-0.2,0-0.3,0.1s-0.1,0.1-0.1,0.1c0,0,0,0.1,0,0.1v1.3h-0.7c0,0-0.1,0-0.1,0c0,0-0.1,0.1-0.1,0.1
			c0,0,0,0.1,0,0.2c0,0.1,0,0.2,0,0.3c0,0.2,0,0.4,0.1,0.5c0,0.1,0.1,0.2,0.2,0.2h0.7v3c0,0.4,0,0.7,0.1,0.9
			c0.1,0.3,0.2,0.5,0.3,0.6c0.2,0.2,0.4,0.3,0.6,0.4c0.2,0.1,0.5,0.1,0.8,0.1c0.1,0,0.2,0,0.4,0c0.1,0,0.2,0,0.3-0.1
			c0.1,0,0.2-0.1,0.3-0.1c0.1,0,0.1-0.1,0.2-0.1c0,0,0.1-0.1,0.1-0.2c0-0.1,0-0.2,0-0.4c0-0.1,0-0.2,0-0.3c0-0.1,0-0.1,0-0.2
			c0,0,0-0.1-0.1-0.1c0,0,0,0-0.1,0c0,0-0.1,0-0.1,0c0,0-0.1,0-0.1,0.1c-0.1,0-0.1,0-0.2,0.1c-0.1,0-0.1,0-0.2,0
			c-0.3,0-0.4-0.1-0.5-0.2s-0.1-0.4-0.1-0.7V82H86.2z"/>
		<path class="st3" d="M90.2,87.1c0.3,0,0.6,0,0.8-0.1c0.3,0,0.5-0.1,0.7-0.1c0.2,0,0.4-0.1,0.5-0.2c0.1-0.1,0.2-0.1,0.2-0.1
			s0.1-0.1,0.1-0.1c0,0,0-0.1,0-0.1c0,0,0-0.1,0-0.2c0-0.1,0-0.1,0-0.2c0-0.1,0-0.2,0-0.3c0-0.1,0-0.1,0-0.2s0-0.1-0.1-0.1
			c0,0-0.1,0-0.1,0c-0.1,0-0.1,0-0.3,0.1c-0.1,0-0.2,0.1-0.4,0.1c-0.2,0-0.3,0.1-0.6,0.1c-0.2,0-0.5,0.1-0.8,0.1
			c-0.3,0-0.5,0-0.7-0.1c-0.2-0.1-0.4-0.2-0.5-0.3c-0.1-0.1-0.2-0.3-0.3-0.5c-0.1-0.2-0.1-0.4-0.1-0.7h3.5c0.2,0,0.3,0,0.4-0.1
			s0.1-0.2,0.1-0.4v-0.3c0-0.4-0.1-0.8-0.2-1.1c-0.1-0.3-0.3-0.6-0.5-0.9s-0.5-0.5-0.8-0.6s-0.8-0.2-1.2-0.2c-0.5,0-0.9,0.1-1.2,0.2
			s-0.7,0.4-0.9,0.7c-0.3,0.3-0.4,0.6-0.6,1.1c-0.1,0.4-0.2,0.9-0.2,1.4c0,0.5,0.1,1,0.2,1.4s0.3,0.7,0.6,1c0.3,0.3,0.6,0.5,1,0.6
			C89.3,87,89.7,87.1,90.2,87.1z M88.9,82.6c0.1-0.2,0.1-0.3,0.2-0.5s0.2-0.2,0.4-0.3s0.3-0.1,0.5-0.1c0.4,0,0.7,0.1,0.9,0.4
			c0.2,0.3,0.3,0.6,0.3,1.1h-2.4C88.8,83,88.8,82.8,88.9,82.6z"/>
		<path class="st3" d="M94.6,87c0.1,0,0.2,0,0.4,0c0.2,0,0.3,0,0.4,0c0.1,0,0.2,0,0.2,0c0.1,0,0.1,0,0.1-0.1c0,0,0-0.1,0-0.1v-3.6
			c0.1-0.2,0.2-0.4,0.3-0.5c0.1-0.1,0.2-0.2,0.3-0.3c0.1-0.1,0.2-0.1,0.3-0.2c0.1,0,0.2-0.1,0.3-0.1c0.1,0,0.1,0,0.2,0
			c0.1,0,0.1,0,0.2,0c0.1,0,0.1,0,0.1,0c0,0,0.1,0,0.1,0c0,0,0.1,0,0.1,0c0,0,0.1-0.1,0.1-0.1c0-0.1,0-0.1,0-0.2c0-0.1,0-0.2,0-0.4
			c0-0.2,0-0.3,0-0.4s0-0.2,0-0.2c0,0,0-0.1,0-0.1s0,0-0.1-0.1c0,0-0.1,0-0.1-0.1c-0.1,0-0.1,0-0.2-0.1c-0.1,0-0.1,0-0.2,0
			s-0.1,0-0.2,0c-0.1,0-0.2,0-0.4,0c-0.1,0-0.2,0.1-0.4,0.2c-0.1,0.1-0.2,0.2-0.4,0.3c-0.1,0.1-0.3,0.3-0.4,0.5v-0.7
			c0,0,0-0.1,0-0.1s-0.1-0.1-0.1-0.1c0,0-0.1,0-0.2,0c-0.1,0-0.2,0-0.3,0c-0.1,0-0.2,0-0.3,0c-0.1,0-0.2,0-0.2,0
			c-0.1,0-0.1,0-0.1,0.1s0,0.1,0,0.1v5.8c0,0,0,0.1,0,0.1s0.1,0.1,0.1,0.1C94.4,86.9,94.5,87,94.6,87z"/>
		<path class="st3" d="M102.8,87c0.2,0,0.3,0,0.4,0c0.1,0,0.2,0,0.2-0.1c0,0,0.1-0.1,0.1-0.1v-3.9c0-0.4,0-0.7-0.1-1
			c-0.1-0.3-0.2-0.5-0.5-0.7c-0.2-0.2-0.5-0.3-0.8-0.4c-0.3-0.1-0.7-0.1-1.2-0.1c-0.3,0-0.5,0-0.7,0.1c-0.2,0-0.5,0.1-0.7,0.2
			c-0.2,0.1-0.4,0.1-0.5,0.2c-0.2,0.1-0.3,0.1-0.3,0.2c-0.1,0.1-0.1,0.1-0.1,0.2c0,0.1,0,0.2,0,0.3c0,0.1,0,0.2,0,0.3
			c0,0.1,0,0.2,0.1,0.2c0,0.1,0.1,0.1,0.1,0.1c0,0,0.1,0,0.1,0c0.1,0,0.2,0,0.3-0.1c0.1-0.1,0.2-0.1,0.4-0.2
			c0.2-0.1,0.4-0.1,0.6-0.2c0.2-0.1,0.5-0.1,0.7-0.1c0.2,0,0.4,0,0.5,0.1c0.1,0,0.3,0.1,0.3,0.2c0.1,0.1,0.1,0.2,0.2,0.3
			c0,0.1,0.1,0.3,0.1,0.5v0.4h-0.6c-0.5,0-1,0-1.4,0.1c-0.4,0.1-0.7,0.2-1,0.4c-0.3,0.2-0.5,0.4-0.6,0.6c-0.1,0.2-0.2,0.5-0.2,0.9
			c0,0.3,0.1,0.6,0.2,0.8c0.1,0.2,0.2,0.4,0.4,0.6c0.2,0.2,0.4,0.3,0.7,0.4c0.3,0.1,0.5,0.1,0.8,0.1c0.4,0,0.7-0.1,1-0.2
			c0.3-0.1,0.6-0.3,0.8-0.6v0.5c0,0.1,0,0.1,0.1,0.1c0,0,0.1,0.1,0.2,0.1C102.5,87,102.6,87,102.8,87z M101.9,85.3
			c-0.2,0.2-0.4,0.4-0.6,0.5c-0.2,0.1-0.4,0.2-0.6,0.2c-0.3,0-0.5-0.1-0.6-0.2c-0.2-0.1-0.2-0.3-0.2-0.6c0-0.1,0-0.3,0.1-0.4
			c0.1-0.1,0.1-0.2,0.3-0.3c0.1-0.1,0.3-0.1,0.5-0.2c0.2,0,0.4-0.1,0.7-0.1h0.6V85.3z"/>
		<path class="st3" d="M110.4,81.5c-0.2-0.3-0.4-0.5-0.7-0.7c-0.3-0.2-0.7-0.2-1.1-0.2c-0.2,0-0.4,0-0.6,0.1c-0.2,0-0.4,0.1-0.5,0.2
			c-0.2,0.1-0.3,0.2-0.5,0.3c-0.2,0.1-0.3,0.3-0.5,0.5v-0.7c0,0,0-0.1,0-0.1c0,0-0.1-0.1-0.1-0.1c-0.1,0-0.1,0-0.2,0
			c-0.1,0-0.2,0-0.3,0c-0.1,0-0.2,0-0.3,0c-0.1,0-0.2,0-0.2,0c-0.1,0-0.1,0-0.1,0.1s0,0.1,0,0.1V89c0,0,0,0.1,0,0.1s0.1,0.1,0.1,0.1
			s0.1,0,0.2,0.1c0.1,0,0.2,0,0.4,0c0.2,0,0.3,0,0.4,0c0.1,0,0.2,0,0.2-0.1s0.1-0.1,0.1-0.1c0,0,0-0.1,0-0.1v-2.7
			c0.1,0.1,0.3,0.3,0.4,0.4c0.1,0.1,0.3,0.2,0.4,0.2c0.1,0.1,0.3,0.1,0.4,0.1c0.1,0,0.3,0,0.5,0c0.4,0,0.8-0.1,1.1-0.2
			c0.3-0.2,0.6-0.4,0.8-0.7c0.2-0.3,0.4-0.6,0.5-1.1c0.1-0.4,0.2-0.9,0.2-1.4c0-0.4,0-0.8-0.1-1.2C110.7,82.1,110.6,81.8,110.4,81.5
			z M109.2,84.5c0,0.2-0.1,0.4-0.2,0.6c-0.1,0.2-0.2,0.3-0.4,0.4c-0.1,0.1-0.3,0.2-0.5,0.2c-0.2,0-0.4-0.1-0.6-0.2
			c-0.2-0.2-0.4-0.4-0.7-0.7v-1.9c0.1-0.2,0.3-0.3,0.4-0.4c0.1-0.1,0.2-0.2,0.3-0.3c0.1-0.1,0.2-0.1,0.3-0.2c0.1,0,0.2,0,0.3,0
			c0.2,0,0.4,0.1,0.5,0.2c0.1,0.1,0.3,0.2,0.4,0.4c0.1,0.2,0.2,0.4,0.2,0.6c0,0.2,0.1,0.5,0.1,0.7C109.2,84.1,109.2,84.3,109.2,84.5
			z"/>
		<path class="st3" d="M113.7,80.8c-0.1,0-0.1,0-0.2-0.1c-0.1,0-0.2,0-0.4,0c-0.2,0-0.3,0-0.4,0c-0.1,0-0.2,0-0.2,0.1
			c-0.1,0-0.1,0.1-0.1,0.1c0,0,0,0.1,0,0.1v5.8c0,0,0,0.1,0,0.1c0,0,0.1,0.1,0.1,0.1c0.1,0,0.1,0,0.2,0c0.1,0,0.2,0,0.4,0
			c0.2,0,0.3,0,0.4,0c0.1,0,0.2,0,0.2,0c0.1,0,0.1,0,0.1-0.1c0,0,0-0.1,0-0.1V81c0,0,0-0.1,0-0.1C113.8,80.8,113.8,80.8,113.7,80.8z
			"/>
		<path class="st3" d="M119.8,81.1c-0.2-0.2-0.5-0.3-0.8-0.4c-0.3-0.1-0.7-0.1-1.2-0.1c-0.3,0-0.5,0-0.7,0.1c-0.2,0-0.5,0.1-0.7,0.2
			c-0.2,0.1-0.4,0.1-0.5,0.2c-0.2,0.1-0.3,0.1-0.3,0.2c-0.1,0.1-0.1,0.1-0.1,0.2c0,0.1,0,0.2,0,0.3c0,0.1,0,0.2,0,0.3
			c0,0.1,0,0.2,0.1,0.2c0,0.1,0.1,0.1,0.1,0.1c0,0,0.1,0,0.1,0c0.1,0,0.2,0,0.3-0.1c0.1-0.1,0.2-0.1,0.4-0.2
			c0.2-0.1,0.4-0.1,0.6-0.2c0.2-0.1,0.5-0.1,0.7-0.1c0.2,0,0.4,0,0.5,0.1c0.1,0,0.3,0.1,0.3,0.2c0.1,0.1,0.1,0.2,0.2,0.3
			c0,0.1,0.1,0.3,0.1,0.5v0.4h-0.6c-0.5,0-1,0-1.4,0.1c-0.4,0.1-0.7,0.2-1,0.4c-0.3,0.2-0.5,0.4-0.6,0.6c-0.1,0.2-0.2,0.5-0.2,0.9
			c0,0.3,0.1,0.6,0.2,0.8c0.1,0.2,0.2,0.4,0.4,0.6c0.2,0.2,0.4,0.3,0.7,0.4c0.3,0.1,0.5,0.1,0.8,0.1c0.4,0,0.7-0.1,1-0.2
			c0.3-0.1,0.6-0.3,0.8-0.6v0.5c0,0.1,0,0.1,0.1,0.1c0,0,0.1,0.1,0.2,0.1c0.1,0,0.2,0,0.4,0c0.2,0,0.3,0,0.4,0c0.1,0,0.2,0,0.2-0.1
			c0,0,0.1-0.1,0.1-0.1v-3.9c0-0.4,0-0.7-0.1-1C120.2,81.5,120,81.3,119.8,81.1z M118.8,85.3c-0.2,0.2-0.4,0.4-0.6,0.5
			c-0.2,0.1-0.4,0.2-0.6,0.2c-0.3,0-0.5-0.1-0.6-0.2c-0.2-0.1-0.2-0.3-0.2-0.6c0-0.1,0-0.3,0.1-0.4c0.1-0.1,0.1-0.2,0.3-0.3
			c0.1-0.1,0.3-0.1,0.5-0.2c0.2,0,0.4-0.1,0.7-0.1h0.6V85.3z"/>
		<path class="st3" d="M65.6,78.3c-0.1-0.1-0.4-0.2-0.7-0.2c-0.4,0-0.6,0.1-0.7,0.2c-0.1,0.1-0.2,0.4-0.2,0.7c0,0.3,0.1,0.5,0.2,0.7
			c0.1,0.1,0.4,0.2,0.7,0.2c0.4,0,0.6-0.1,0.7-0.2c0.1-0.1,0.2-0.4,0.2-0.7C65.8,78.7,65.7,78.5,65.6,78.3z"/>
		<path class="st3" d="M72.7,78.3c-0.1,0.1-0.2,0.4-0.2,0.7c0,0.3,0.1,0.5,0.2,0.7c0.1,0.1,0.4,0.2,0.7,0.2c0.4,0,0.6-0.1,0.7-0.2
			c0.1-0.1,0.2-0.4,0.2-0.7c0-0.3-0.1-0.5-0.2-0.7c-0.1-0.1-0.4-0.2-0.7-0.2C73,78.1,72.8,78.2,72.7,78.3z"/>
		<path class="st3" d="M113.1,78.1c-0.4,0-0.6,0.1-0.7,0.2s-0.2,0.4-0.2,0.7c0,0.3,0.1,0.5,0.2,0.7c0.1,0.1,0.4,0.2,0.7,0.2
			c0.4,0,0.6-0.1,0.7-0.2c0.1-0.1,0.2-0.4,0.2-0.7c0-0.3-0.1-0.5-0.2-0.7C113.7,78.2,113.4,78.1,113.1,78.1z"/>
	</g>
	<g>
		<path class="st3" d="M55.6,95.4c-0.3-0.4-0.7-0.6-1.2-0.8c-0.5-0.2-1-0.3-1.7-0.3c-0.7,0-1.3,0.1-1.8,0.3
			c-0.5,0.2-0.9,0.5-1.3,0.9c-0.3,0.4-0.6,0.8-0.8,1.4c-0.2,0.5-0.3,1.2-0.3,1.8c0,0.7,0.1,1.4,0.2,1.9c0.2,0.5,0.4,1,0.7,1.3
			c0.3,0.4,0.7,0.6,1.2,0.8c0.5,0.2,1.1,0.3,1.7,0.3c0.7,0,1.2-0.1,1.7-0.3c0.5-0.2,0.9-0.5,1.3-0.9c0.3-0.4,0.6-0.8,0.8-1.4
			c0.2-0.5,0.3-1.2,0.3-1.9c0-0.7-0.1-1.4-0.2-1.9C56.2,96.2,55.9,95.7,55.6,95.4z M54.7,99.8c-0.1,0.4-0.2,0.7-0.4,0.9
			c-0.2,0.3-0.4,0.5-0.7,0.6s-0.6,0.2-1.1,0.2c-0.4,0-0.8-0.1-1-0.2c-0.3-0.1-0.5-0.3-0.7-0.6c-0.2-0.3-0.3-0.6-0.4-0.9
			c-0.1-0.4-0.1-0.8-0.1-1.2c0-0.4,0-0.8,0.1-1.1s0.2-0.7,0.4-0.9c0.2-0.3,0.4-0.5,0.7-0.6c0.3-0.2,0.6-0.2,1.1-0.2
			c0.4,0,0.8,0.1,1,0.2c0.3,0.1,0.5,0.3,0.7,0.6c0.2,0.3,0.3,0.6,0.4,0.9c0.1,0.4,0.1,0.8,0.1,1.2C54.8,99.1,54.7,99.5,54.7,99.8z"
			/>
		<path class="st3" d="M61.5,99.9c-0.1-0.1-0.3-0.3-0.5-0.4c-0.2-0.1-0.3-0.2-0.5-0.2c-0.2-0.1-0.3-0.1-0.5-0.2
			c-0.2-0.1-0.3-0.1-0.5-0.2c-0.1-0.1-0.2-0.1-0.3-0.2c-0.1-0.1-0.1-0.2-0.1-0.3c0-0.1,0-0.2,0.1-0.2c0-0.1,0.1-0.1,0.2-0.2
			c0.1-0.1,0.2-0.1,0.3-0.1c0.1,0,0.2,0,0.4,0c0.2,0,0.4,0,0.6,0.1c0.2,0,0.3,0.1,0.4,0.1c0.1,0.1,0.2,0.1,0.3,0.1
			c0.1,0,0.1,0.1,0.2,0.1c0,0,0.1,0,0.1,0c0,0,0,0,0.1-0.1c0,0,0-0.1,0-0.2c0-0.1,0-0.2,0-0.3c0-0.1,0-0.2,0-0.2c0-0.1,0-0.1,0-0.2
			c0,0,0-0.1,0-0.1c0,0,0-0.1-0.1-0.1c0,0-0.1-0.1-0.2-0.1c-0.1,0-0.2-0.1-0.4-0.1c-0.1,0-0.3-0.1-0.5-0.1c-0.2,0-0.3,0-0.5,0
			c-0.4,0-0.7,0-1,0.1c-0.3,0.1-0.5,0.2-0.7,0.4c-0.2,0.2-0.4,0.4-0.5,0.6c-0.1,0.2-0.2,0.5-0.2,0.8c0,0.3,0,0.5,0.1,0.7
			c0.1,0.2,0.2,0.4,0.3,0.5c0.1,0.1,0.3,0.3,0.4,0.4c0.2,0.1,0.3,0.2,0.5,0.3c0.2,0.1,0.3,0.1,0.5,0.2c0.2,0.1,0.3,0.1,0.4,0.2
			c0.1,0.1,0.2,0.2,0.3,0.2c0.1,0.1,0.1,0.2,0.1,0.3c0,0.1,0,0.2-0.1,0.3c0,0.1-0.1,0.2-0.2,0.2c-0.1,0.1-0.2,0.1-0.3,0.1
			c-0.1,0-0.2,0-0.4,0c-0.2,0-0.4,0-0.6-0.1c-0.2-0.1-0.3-0.1-0.5-0.2c-0.1-0.1-0.3-0.1-0.3-0.2c-0.1-0.1-0.2-0.1-0.2-0.1
			c0,0-0.1,0-0.1,0c0,0,0,0-0.1,0.1c0,0,0,0.1,0,0.2c0,0.1,0,0.2,0,0.3c0,0.2,0,0.3,0,0.4c0,0.1,0.1,0.2,0.1,0.2
			c0,0,0.1,0.1,0.2,0.1s0.2,0.1,0.4,0.2c0.2,0,0.3,0.1,0.5,0.1c0.2,0,0.4,0,0.6,0c0.4,0,0.7,0,1-0.1c0.3-0.1,0.6-0.2,0.8-0.4
			c0.2-0.2,0.4-0.4,0.5-0.6c0.1-0.3,0.2-0.5,0.2-0.9c0-0.3,0-0.5-0.1-0.7C61.8,100.2,61.7,100,61.5,99.9z"/>
		<path class="st3" d="M66.2,98c0.1,0,0.1-0.1,0.2-0.2c0-0.1,0.1-0.3,0.1-0.5c0-0.1,0-0.2,0-0.3c0-0.1,0-0.2,0-0.2
			c0,0,0-0.1-0.1-0.1s-0.1,0-0.1,0H65v-1.3c0,0,0-0.1,0-0.1c0,0-0.1-0.1-0.1-0.1c-0.1,0-0.1,0-0.2-0.1c-0.1,0-0.2,0-0.4,0
			c-0.2,0-0.3,0-0.4,0c-0.1,0-0.2,0-0.3,0.1c-0.1,0-0.1,0.1-0.1,0.1c0,0,0,0.1,0,0.1v1.3h-0.7c0,0-0.1,0-0.1,0s-0.1,0.1-0.1,0.1
			c0,0,0,0.1,0,0.2c0,0.1,0,0.2,0,0.3c0,0.2,0,0.4,0.1,0.5c0,0.1,0.1,0.2,0.2,0.2h0.7v3c0,0.4,0,0.7,0.1,0.9
			c0.1,0.3,0.2,0.5,0.3,0.6c0.2,0.2,0.4,0.3,0.6,0.4c0.2,0.1,0.5,0.1,0.8,0.1c0.1,0,0.2,0,0.4,0c0.1,0,0.2,0,0.3-0.1
			c0.1,0,0.2-0.1,0.3-0.1c0.1,0,0.1-0.1,0.2-0.1c0,0,0.1-0.1,0.1-0.2c0-0.1,0-0.2,0-0.4c0-0.1,0-0.2,0-0.3c0-0.1,0-0.1,0-0.2
			c0,0,0-0.1-0.1-0.1c0,0,0,0-0.1,0c0,0-0.1,0-0.1,0c0,0-0.1,0-0.1,0.1c-0.1,0-0.1,0-0.2,0.1c-0.1,0-0.1,0-0.2,0
			c-0.3,0-0.4-0.1-0.5-0.2c-0.1-0.2-0.1-0.4-0.1-0.7V98H66.2z"/>
		<path class="st3" d="M72.2,97.3c-0.2-0.3-0.5-0.5-0.8-0.6c-0.3-0.1-0.8-0.2-1.2-0.2c-0.5,0-0.9,0.1-1.2,0.2
			c-0.4,0.2-0.7,0.4-0.9,0.7c-0.3,0.3-0.4,0.6-0.6,1.1c-0.1,0.4-0.2,0.9-0.2,1.4c0,0.5,0.1,1,0.2,1.4c0.1,0.4,0.3,0.7,0.6,1
			s0.6,0.5,1,0.6c0.4,0.1,0.8,0.2,1.4,0.2c0.3,0,0.6,0,0.8-0.1c0.3,0,0.5-0.1,0.7-0.1c0.2,0,0.4-0.1,0.5-0.2
			c0.1-0.1,0.2-0.1,0.2-0.1c0,0,0.1-0.1,0.1-0.1c0,0,0-0.1,0-0.1c0,0,0-0.1,0-0.2c0-0.1,0-0.1,0-0.2c0-0.1,0-0.2,0-0.3
			c0-0.1,0-0.1,0-0.2c0,0,0-0.1-0.1-0.1c0,0-0.1,0-0.1,0c-0.1,0-0.1,0-0.3,0.1c-0.1,0-0.2,0.1-0.4,0.1c-0.2,0-0.3,0.1-0.6,0.1
			c-0.2,0-0.5,0.1-0.8,0.1c-0.3,0-0.5,0-0.7-0.1c-0.2-0.1-0.4-0.2-0.5-0.3c-0.1-0.1-0.2-0.3-0.3-0.5c-0.1-0.2-0.1-0.4-0.1-0.7h3.5
			c0.2,0,0.3,0,0.4-0.1c0.1-0.1,0.1-0.2,0.1-0.4v-0.3c0-0.4-0.1-0.8-0.2-1.1C72.6,97.9,72.5,97.6,72.2,97.3z M68.9,99.1
			c0-0.2,0-0.4,0.1-0.6c0.1-0.2,0.1-0.3,0.2-0.5c0.1-0.1,0.2-0.2,0.4-0.3c0.2-0.1,0.3-0.1,0.5-0.1c0.4,0,0.7,0.1,0.9,0.4
			c0.2,0.3,0.3,0.6,0.3,1.1H68.9z"/>
		<path class="st3" d="M79.3,97.3c-0.2-0.3-0.6-0.5-0.9-0.6c-0.4-0.1-0.8-0.2-1.3-0.2c-0.5,0-1,0.1-1.4,0.2c-0.4,0.2-0.7,0.4-1,0.7
			c-0.3,0.3-0.5,0.6-0.6,1.1c-0.1,0.4-0.2,0.9-0.2,1.4c0,0.5,0.1,1,0.2,1.4c0.1,0.4,0.3,0.7,0.6,1c0.3,0.3,0.6,0.5,0.9,0.6
			c0.4,0.1,0.8,0.2,1.3,0.2c0.5,0,1-0.1,1.4-0.2c0.4-0.2,0.7-0.4,1-0.7c0.3-0.3,0.5-0.6,0.6-1.1c0.1-0.4,0.2-0.9,0.2-1.3
			c0-0.5-0.1-1-0.2-1.4C79.8,98,79.6,97.6,79.3,97.3z M78.3,100.6c-0.1,0.2-0.1,0.4-0.3,0.6c-0.1,0.2-0.3,0.3-0.4,0.4
			c-0.2,0.1-0.4,0.1-0.6,0.1c-0.3,0-0.5,0-0.7-0.1c-0.2-0.1-0.3-0.2-0.4-0.4c-0.1-0.2-0.2-0.4-0.2-0.6c0-0.2-0.1-0.5-0.1-0.8
			c0-0.3,0-0.6,0.1-0.8c0.1-0.2,0.1-0.4,0.3-0.6c0.1-0.2,0.3-0.3,0.4-0.4c0.2-0.1,0.4-0.1,0.6-0.1c0.3,0,0.5,0,0.7,0.1
			c0.2,0.1,0.3,0.2,0.4,0.4c0.1,0.2,0.2,0.4,0.2,0.6c0,0.2,0.1,0.5,0.1,0.8C78.4,100.1,78.4,100.4,78.3,100.6z"/>
		<path class="st3" d="M86.6,97.4c-0.2-0.3-0.4-0.5-0.7-0.7c-0.3-0.2-0.7-0.2-1.1-0.2c-0.2,0-0.4,0-0.6,0.1c-0.2,0-0.4,0.1-0.5,0.2
			c-0.2,0.1-0.3,0.2-0.5,0.3c-0.2,0.1-0.3,0.3-0.5,0.5v-0.7c0,0,0-0.1,0-0.1c0,0-0.1-0.1-0.1-0.1c-0.1,0-0.1,0-0.2,0
			c-0.1,0-0.2,0-0.3,0c-0.1,0-0.2,0-0.3,0c-0.1,0-0.2,0-0.2,0c-0.1,0-0.1,0-0.1,0.1c0,0,0,0.1,0,0.1v8.1c0,0,0,0.1,0,0.1
			c0,0,0.1,0.1,0.1,0.1c0.1,0,0.1,0,0.2,0.1c0.1,0,0.2,0,0.4,0c0.2,0,0.3,0,0.4,0c0.1,0,0.2,0,0.2-0.1c0.1,0,0.1-0.1,0.1-0.1
			c0,0,0-0.1,0-0.1v-2.7c0.1,0.1,0.3,0.3,0.4,0.4c0.1,0.1,0.3,0.2,0.4,0.2c0.1,0.1,0.3,0.1,0.4,0.1c0.1,0,0.3,0,0.5,0
			c0.4,0,0.8-0.1,1.1-0.2c0.3-0.2,0.6-0.4,0.8-0.7c0.2-0.3,0.4-0.6,0.5-1.1c0.1-0.4,0.2-0.9,0.2-1.4c0-0.4,0-0.8-0.1-1.2
			C87,98.1,86.8,97.7,86.6,97.4z M85.4,100.5c0,0.2-0.1,0.4-0.2,0.6c-0.1,0.2-0.2,0.3-0.4,0.4c-0.1,0.1-0.3,0.2-0.5,0.2
			c-0.2,0-0.4-0.1-0.6-0.2c-0.2-0.2-0.4-0.4-0.7-0.7v-1.9c0.1-0.2,0.3-0.3,0.4-0.4c0.1-0.1,0.2-0.2,0.3-0.3S83.9,98,84,98
			c0.1,0,0.2,0,0.3,0c0.2,0,0.4,0.1,0.5,0.2c0.1,0.1,0.3,0.2,0.4,0.4c0.1,0.2,0.2,0.4,0.2,0.6c0,0.2,0.1,0.5,0.1,0.7
			C85.5,100,85.5,100.3,85.4,100.5z"/>
		<path class="st3" d="M92.8,97.1c-0.2-0.2-0.5-0.3-0.8-0.4c-0.3-0.1-0.7-0.1-1.2-0.1c-0.3,0-0.5,0-0.7,0.1c-0.2,0-0.5,0.1-0.7,0.2
			c-0.2,0.1-0.4,0.1-0.5,0.2c-0.2,0.1-0.3,0.1-0.3,0.2c-0.1,0.1-0.1,0.1-0.1,0.2c0,0.1,0,0.2,0,0.3c0,0.1,0,0.2,0,0.3
			c0,0.1,0,0.2,0.1,0.2c0,0.1,0.1,0.1,0.1,0.1c0,0,0.1,0,0.1,0c0.1,0,0.2,0,0.3-0.1c0.1-0.1,0.2-0.1,0.4-0.2
			c0.2-0.1,0.4-0.1,0.6-0.2c0.2-0.1,0.5-0.1,0.7-0.1c0.2,0,0.4,0,0.5,0.1c0.1,0,0.3,0.1,0.3,0.2c0.1,0.1,0.1,0.2,0.2,0.3
			c0,0.1,0.1,0.3,0.1,0.5v0.4h-0.6c-0.5,0-1,0-1.4,0.1c-0.4,0.1-0.7,0.2-1,0.4c-0.3,0.2-0.5,0.4-0.6,0.6c-0.1,0.2-0.2,0.5-0.2,0.9
			c0,0.3,0.1,0.6,0.2,0.8c0.1,0.2,0.2,0.4,0.4,0.6c0.2,0.2,0.4,0.3,0.7,0.4s0.5,0.1,0.8,0.1c0.4,0,0.7-0.1,1-0.2
			c0.3-0.1,0.6-0.3,0.8-0.6v0.5c0,0.1,0,0.1,0.1,0.1c0,0,0.1,0.1,0.2,0.1c0.1,0,0.2,0,0.4,0c0.2,0,0.3,0,0.4,0c0.1,0,0.2,0,0.2-0.1
			c0,0,0.1-0.1,0.1-0.1v-3.9c0-0.4,0-0.7-0.1-1C93.2,97.5,93,97.2,92.8,97.1z M91.8,101.2c-0.2,0.2-0.4,0.4-0.6,0.5
			c-0.2,0.1-0.4,0.2-0.6,0.2c-0.3,0-0.5-0.1-0.6-0.2c-0.2-0.1-0.2-0.3-0.2-0.6c0-0.1,0-0.3,0.1-0.4c0.1-0.1,0.1-0.2,0.3-0.3
			s0.3-0.1,0.5-0.2c0.2,0,0.4-0.1,0.7-0.1h0.6V101.2z"/>
		<path class="st3" d="M100.6,96.7h-3.7v-1.3c0,0,0-0.1,0-0.1c0,0-0.1-0.1-0.1-0.1c-0.1,0-0.1,0-0.2-0.1c-0.1,0-0.2,0-0.4,0
			c-0.2,0-0.3,0-0.4,0c-0.1,0-0.2,0-0.3,0.1c-0.1,0-0.1,0.1-0.1,0.1c0,0,0,0.1,0,0.1v1.3h-0.7c0,0-0.1,0-0.1,0s-0.1,0.1-0.1,0.1
			c0,0,0,0.1,0,0.2c0,0.1,0,0.2,0,0.3c0,0.2,0,0.4,0.1,0.5c0,0.1,0.1,0.2,0.2,0.2h0.7v3c0,0.4,0,0.7,0.1,0.9
			c0.1,0.3,0.2,0.5,0.3,0.6c0.2,0.2,0.4,0.3,0.6,0.4c0.2,0.1,0.5,0.1,0.8,0.1c0.1,0,0.2,0,0.4,0c0.1,0,0.2,0,0.3-0.1
			c0.1,0,0.2-0.1,0.3-0.1c0.1,0,0.1-0.1,0.2-0.1c0,0,0.1-0.1,0.1-0.2c0-0.1,0-0.2,0-0.4c0-0.1,0-0.2,0-0.3c0-0.1,0-0.1,0-0.2
			c0,0,0-0.1-0.1-0.1c0,0,0,0-0.1,0c0,0-0.1,0-0.1,0c0,0-0.1,0-0.1,0.1c-0.1,0-0.1,0-0.2,0.1c-0.1,0-0.1,0-0.2,0
			c-0.3,0-0.4-0.1-0.5-0.2c-0.1-0.2-0.1-0.4-0.1-0.7V98h2.6v4.7c0,0,0,0.1,0,0.1c0,0,0.1,0.1,0.1,0.1c0.1,0,0.1,0,0.2,0
			c0.1,0,0.2,0,0.4,0c0.2,0,0.3,0,0.4,0c0.1,0,0.2,0,0.2,0c0.1,0,0.1,0,0.1-0.1c0,0,0-0.1,0-0.1v-5.6c0-0.1,0-0.3-0.1-0.3
			C100.9,96.7,100.7,96.7,100.6,96.7z"/>
		<path class="st3" d="M107,97.1c-0.2-0.2-0.5-0.3-0.8-0.4c-0.3-0.1-0.7-0.1-1.2-0.1c-0.3,0-0.5,0-0.7,0.1c-0.2,0-0.5,0.1-0.7,0.2
			c-0.2,0.1-0.4,0.1-0.5,0.2c-0.2,0.1-0.3,0.1-0.3,0.2c-0.1,0.1-0.1,0.1-0.1,0.2c0,0.1,0,0.2,0,0.3c0,0.1,0,0.2,0,0.3
			c0,0.1,0,0.2,0.1,0.2c0,0.1,0.1,0.1,0.1,0.1c0,0,0.1,0,0.1,0c0.1,0,0.2,0,0.3-0.1c0.1-0.1,0.2-0.1,0.4-0.2
			c0.2-0.1,0.4-0.1,0.6-0.2c0.2-0.1,0.5-0.1,0.7-0.1c0.2,0,0.4,0,0.5,0.1c0.1,0,0.3,0.1,0.3,0.2c0.1,0.1,0.1,0.2,0.2,0.3
			c0,0.1,0.1,0.3,0.1,0.5v0.4h-0.6c-0.5,0-1,0-1.4,0.1c-0.4,0.1-0.7,0.2-1,0.4c-0.3,0.2-0.5,0.4-0.6,0.6c-0.1,0.2-0.2,0.5-0.2,0.9
			c0,0.3,0.1,0.6,0.2,0.8c0.1,0.2,0.2,0.4,0.4,0.6c0.2,0.2,0.4,0.3,0.7,0.4s0.5,0.1,0.8,0.1c0.4,0,0.7-0.1,1-0.2
			c0.3-0.1,0.6-0.3,0.8-0.6v0.5c0,0.1,0,0.1,0.1,0.1c0,0,0.1,0.1,0.2,0.1c0.1,0,0.2,0,0.4,0c0.2,0,0.3,0,0.4,0c0.1,0,0.2,0,0.2-0.1
			c0,0,0.1-0.1,0.1-0.1v-3.9c0-0.4,0-0.7-0.1-1C107.4,97.5,107.2,97.2,107,97.1z M106,101.2c-0.2,0.2-0.4,0.4-0.6,0.5
			c-0.2,0.1-0.4,0.2-0.6,0.2c-0.3,0-0.5-0.1-0.6-0.2c-0.2-0.1-0.2-0.3-0.2-0.6c0-0.1,0-0.3,0.1-0.4c0.1-0.1,0.1-0.2,0.3-0.3
			s0.3-0.1,0.5-0.2s0.4-0.1,0.7-0.1h0.6V101.2z"/>
		<path class="st3" d="M100.2,94.1c-0.4,0-0.6,0.1-0.7,0.2c-0.1,0.1-0.2,0.4-0.2,0.7c0,0.3,0.1,0.5,0.2,0.7s0.4,0.2,0.7,0.2
			c0.4,0,0.6-0.1,0.7-0.2c0.1-0.1,0.2-0.4,0.2-0.7c0-0.3-0.1-0.5-0.2-0.7C100.9,94.1,100.6,94.1,100.2,94.1z"/>
	</g>
	<g>
		<path class="st1" d="M81,64.9c0,0.1,0,0.2,0,0.3c0,0.1,0,0.2,0.1,0.3c0,0.1,0.1,0.1,0.1,0.2c0,0,0.1,0.1,0.2,0.1
			c0.1,0,0.2,0,0.3-0.1c0.1-0.1,0.3-0.2,0.5-0.3c0.2-0.1,0.4-0.2,0.7-0.3c0.3-0.1,0.6-0.1,0.9-0.1c0.3,0,0.5,0,0.7,0.1
			c0.2,0.1,0.3,0.1,0.4,0.3c0.1,0.1,0.2,0.3,0.2,0.4c0,0.2,0.1,0.4,0.1,0.6v0.4h-0.7c-0.6,0-1.2,0-1.7,0.1c-0.5,0.1-0.9,0.2-1.2,0.5
			c-0.3,0.2-0.6,0.5-0.7,0.8c-0.2,0.3-0.2,0.7-0.2,1.1c0,0.4,0.1,0.7,0.2,1c0.1,0.3,0.3,0.5,0.5,0.7c0.2,0.2,0.5,0.3,0.8,0.4
			c0.3,0.1,0.7,0.2,1.1,0.2c0.5,0,0.9-0.1,1.3-0.3c0.4-0.2,0.7-0.4,1-0.7v0.6c0,0.1,0,0.1,0.1,0.2c0,0,0.1,0.1,0.2,0.1
			c0.1,0,0.3,0,0.5,0c0.2,0,0.4,0,0.5,0c0.1,0,0.2,0,0.3-0.1c0.1,0,0.1-0.1,0.1-0.2v-4.9c0-0.5-0.1-0.9-0.2-1.3
			c-0.1-0.4-0.3-0.7-0.6-0.9c-0.3-0.2-0.6-0.4-1-0.5c-0.4-0.1-0.9-0.2-1.5-0.2c-0.3,0-0.6,0-0.9,0.1c-0.3,0.1-0.6,0.1-0.8,0.2
			c-0.3,0.1-0.5,0.2-0.7,0.3c-0.2,0.1-0.3,0.2-0.4,0.3c-0.1,0.1-0.1,0.2-0.2,0.3C81.1,64.6,81,64.7,81,64.9z M85.3,69.3
			c-0.2,0.3-0.5,0.5-0.7,0.6c-0.2,0.1-0.5,0.2-0.8,0.2c-0.3,0-0.6-0.1-0.8-0.3c-0.2-0.2-0.3-0.4-0.3-0.7c0-0.2,0-0.3,0.1-0.5
			c0.1-0.1,0.2-0.3,0.3-0.4c0.1-0.1,0.3-0.2,0.6-0.2c0.2,0,0.5-0.1,0.8-0.1h0.8V69.3z"/>
		<path class="st1" d="M94.2,71.1c0,0.1,0,0.1,0,0.1c0,0,0.1,0.1,0.2,0.1c0.1,0,0.2,0,0.3,0.1c0.1,0,0.3,0,0.5,0c0.2,0,0.4,0,0.5,0
			c0.1,0,0.2,0,0.3-0.1c0.1,0,0.1-0.1,0.2-0.1c0,0,0-0.1,0-0.1v-4.5c0-0.5,0-1-0.1-1.3c-0.1-0.4-0.2-0.7-0.5-1
			c-0.2-0.3-0.5-0.5-0.8-0.7c-0.3-0.2-0.8-0.2-1.2-0.2c-0.4,0-0.9,0.1-1.3,0.3c-0.4,0.2-0.8,0.5-1.2,1v-0.8c0-0.1,0-0.1,0-0.1
			c0,0-0.1-0.1-0.1-0.1c-0.1,0-0.2,0-0.3-0.1c-0.1,0-0.3,0-0.4,0c-0.2,0-0.3,0-0.4,0c-0.1,0-0.2,0-0.3,0.1c-0.1,0-0.1,0.1-0.1,0.1
			c0,0,0,0.1,0,0.1v7.2c0,0.1,0,0.1,0,0.1c0,0,0.1,0.1,0.2,0.1c0.1,0,0.2,0,0.3,0.1c0.1,0,0.3,0,0.5,0c0.2,0,0.4,0,0.5,0
			c0.1,0,0.2,0,0.3-0.1c0.1,0,0.1-0.1,0.2-0.1c0,0,0-0.1,0-0.1v-4.8c0.3-0.4,0.6-0.6,0.8-0.8c0.3-0.2,0.5-0.3,0.8-0.3
			c0.2,0,0.4,0,0.5,0.1c0.2,0.1,0.3,0.2,0.4,0.3c0.1,0.1,0.2,0.3,0.2,0.5c0.1,0.2,0.1,0.5,0.1,0.8V71.1z"/>
		<path class="st1" d="M97.5,65.2h0.9V69c0,0.4,0,0.8,0.1,1.2c0.1,0.3,0.2,0.6,0.4,0.8c0.2,0.2,0.4,0.4,0.7,0.5
			c0.3,0.1,0.6,0.2,1.1,0.2c0.2,0,0.3,0,0.5,0c0.1,0,0.3,0,0.4-0.1s0.2-0.1,0.3-0.1s0.2-0.1,0.2-0.1c0-0.1,0.1-0.1,0.1-0.3
			c0-0.1,0-0.3,0-0.5c0-0.2,0-0.3,0-0.4c0-0.1,0-0.2,0-0.2c0-0.1,0-0.1-0.1-0.1c0,0-0.1,0-0.1,0c0,0-0.1,0-0.1,0c0,0-0.1,0-0.2,0.1
			c-0.1,0-0.1,0-0.2,0.1c-0.1,0-0.2,0-0.3,0c-0.3,0-0.5-0.1-0.7-0.3c-0.1-0.2-0.2-0.5-0.2-0.9v-3.4h1.6c0.1,0,0.2-0.1,0.2-0.2
			c0.1-0.1,0.1-0.3,0.1-0.6c0-0.2,0-0.3,0-0.4c0-0.1,0-0.2-0.1-0.3c0-0.1-0.1-0.1-0.1-0.1c0,0-0.1,0-0.1,0h-1.6V62
			c0-0.1,0-0.1,0-0.1c0,0-0.1-0.1-0.2-0.1c-0.1,0-0.2-0.1-0.3-0.1c-0.1,0-0.3,0-0.5,0c-0.2,0-0.4,0-0.5,0c-0.1,0-0.2,0-0.3,0.1
			c-0.1,0-0.1,0.1-0.2,0.1c0,0,0,0.1,0,0.1v1.6h-0.9c-0.1,0-0.1,0-0.1,0c0,0-0.1,0.1-0.1,0.1c0,0.1,0,0.1-0.1,0.3c0,0.1,0,0.2,0,0.4
			c0,0.3,0,0.5,0.1,0.6C97.4,65.2,97.4,65.2,97.5,65.2z"/>
		<path class="st1" d="M104.2,70.6c0.3,0.3,0.7,0.6,1.2,0.7c0.5,0.2,1,0.2,1.7,0.2c0.4,0,0.7,0,1-0.1c0.3,0,0.6-0.1,0.8-0.2
			c0.2-0.1,0.4-0.1,0.6-0.2c0.2-0.1,0.3-0.1,0.3-0.2c0,0,0.1-0.1,0.1-0.1c0,0,0-0.1,0-0.2c0-0.1,0-0.1,0-0.2c0-0.1,0-0.2,0-0.3
			c0-0.1,0-0.2,0-0.3c0-0.1,0-0.2,0-0.2c0,0,0-0.1-0.1-0.1c0,0-0.1,0-0.1,0c-0.1,0-0.2,0-0.3,0.1c-0.1,0.1-0.3,0.1-0.5,0.2
			c-0.2,0.1-0.4,0.1-0.7,0.2c-0.3,0.1-0.6,0.1-0.9,0.1c-0.4,0-0.7,0-0.9-0.1c-0.3-0.1-0.5-0.2-0.6-0.4s-0.3-0.4-0.3-0.6
			c-0.1-0.3-0.1-0.5-0.1-0.8h4.4c0.2,0,0.3-0.1,0.5-0.2c0.1-0.1,0.2-0.3,0.2-0.6v-0.3c0-0.5-0.1-1-0.2-1.4c-0.1-0.4-0.3-0.8-0.6-1.1
			c-0.3-0.3-0.6-0.6-1.1-0.7c-0.4-0.2-0.9-0.3-1.6-0.3c-0.6,0-1.1,0.1-1.5,0.3c-0.5,0.2-0.8,0.5-1.2,0.8c-0.3,0.4-0.6,0.8-0.7,1.3
			c-0.2,0.5-0.3,1.1-0.3,1.7c0,0.7,0.1,1.3,0.2,1.8C103.6,69.8,103.8,70.3,104.2,70.6z M105.4,66c0.1-0.2,0.2-0.4,0.3-0.6
			c0.1-0.2,0.3-0.3,0.5-0.4c0.2-0.1,0.4-0.1,0.7-0.1c0.5,0,0.9,0.2,1.1,0.5c0.2,0.3,0.4,0.8,0.3,1.4h-3.1
			C105.3,66.4,105.3,66.2,105.4,66z"/>
	</g>
	<g>
		<path class="st1" d="M136.2,64.1c-0.3-0.2-0.6-0.4-1-0.5c-0.4-0.1-0.9-0.2-1.5-0.2c-0.3,0-0.6,0-0.9,0.1c-0.3,0.1-0.6,0.1-0.8,0.2
			c-0.3,0.1-0.5,0.2-0.7,0.3c-0.2,0.1-0.3,0.2-0.4,0.3c-0.1,0.1-0.1,0.2-0.2,0.3c0,0.1,0,0.2,0,0.4c0,0.1,0,0.2,0,0.3
			c0,0.1,0,0.2,0.1,0.3c0,0.1,0.1,0.1,0.1,0.2c0,0,0.1,0.1,0.2,0.1c0.1,0,0.2,0,0.3-0.1c0.1-0.1,0.3-0.2,0.5-0.3
			c0.2-0.1,0.4-0.2,0.7-0.3c0.3-0.1,0.6-0.1,0.9-0.1c0.3,0,0.5,0,0.7,0.1c0.2,0.1,0.3,0.1,0.4,0.3c0.1,0.1,0.2,0.3,0.2,0.4
			c0,0.2,0.1,0.4,0.1,0.6v0.4h-0.7c-0.6,0-1.2,0-1.7,0.1c-0.5,0.1-0.9,0.2-1.2,0.5s-0.6,0.5-0.7,0.8c-0.2,0.3-0.2,0.7-0.2,1.1
			c0,0.4,0.1,0.7,0.2,1c0.1,0.3,0.3,0.5,0.5,0.7c0.2,0.2,0.5,0.3,0.8,0.4c0.3,0.1,0.7,0.2,1.1,0.2c0.5,0,0.9-0.1,1.3-0.3
			c0.4-0.2,0.7-0.4,1-0.7v0.6c0,0.1,0,0.1,0.1,0.2c0,0,0.1,0.1,0.2,0.1c0.1,0,0.3,0,0.5,0c0.2,0,0.4,0,0.5,0c0.1,0,0.2,0,0.3-0.1
			c0.1,0,0.1-0.1,0.1-0.2v-4.9c0-0.5-0.1-0.9-0.2-1.3C136.7,64.6,136.5,64.3,136.2,64.1z M134.9,69.3c-0.2,0.3-0.5,0.5-0.7,0.6
			c-0.2,0.1-0.5,0.2-0.8,0.2c-0.3,0-0.6-0.1-0.8-0.3c-0.2-0.2-0.3-0.4-0.3-0.7c0-0.2,0-0.3,0.1-0.5c0.1-0.1,0.2-0.3,0.3-0.4
			c0.1-0.1,0.3-0.2,0.6-0.2c0.2,0,0.5-0.1,0.8-0.1h0.8V69.3z"/>
		<path class="st1" d="M143.6,63.8c0-0.1,0-0.1,0-0.1c0,0,0-0.1-0.1-0.1c0,0-0.1-0.1-0.1-0.1c-0.1,0-0.1,0-0.2-0.1
			c-0.1,0-0.2,0-0.3,0c-0.1,0-0.2,0-0.2,0c-0.2,0-0.3,0-0.5,0.1c-0.2,0-0.3,0.1-0.5,0.2c-0.2,0.1-0.3,0.2-0.5,0.4
			c-0.2,0.2-0.3,0.4-0.5,0.7v-0.9c0-0.1,0-0.1,0-0.1c0,0-0.1-0.1-0.1-0.1c-0.1,0-0.2,0-0.3-0.1c-0.1,0-0.3,0-0.4,0
			c-0.2,0-0.3,0-0.4,0c-0.1,0-0.2,0-0.3,0.1c-0.1,0-0.1,0.1-0.1,0.1c0,0,0,0.1,0,0.1v7.2c0,0.1,0,0.1,0,0.1c0,0,0.1,0.1,0.2,0.1
			c0.1,0,0.2,0,0.3,0.1c0.1,0,0.3,0,0.5,0c0.2,0,0.4,0,0.5,0c0.1,0,0.2,0,0.3-0.1c0.1,0,0.1-0.1,0.2-0.1c0,0,0-0.1,0-0.1v-4.5
			c0.2-0.2,0.3-0.4,0.4-0.6c0.1-0.2,0.3-0.3,0.4-0.4c0.1-0.1,0.2-0.2,0.4-0.2c0.1,0,0.2-0.1,0.3-0.1c0.1,0,0.2,0,0.3,0
			c0.1,0,0.2,0,0.2,0.1c0.1,0,0.1,0,0.2,0.1c0.1,0,0.1,0,0.1,0c0.1,0,0.1,0,0.1,0c0,0,0.1-0.1,0.1-0.1c0-0.1,0-0.2,0-0.3
			c0-0.1,0-0.3,0-0.5c0-0.2,0-0.3,0-0.5C143.6,64,143.6,63.9,143.6,63.8z"/>
		<path class="st1" d="M150.5,65c-0.1-0.4-0.3-0.7-0.6-0.9c-0.3-0.2-0.6-0.4-1-0.5c-0.4-0.1-0.9-0.2-1.5-0.2c-0.3,0-0.6,0-0.9,0.1
			c-0.3,0.1-0.6,0.1-0.8,0.2c-0.3,0.1-0.5,0.2-0.7,0.3c-0.2,0.1-0.3,0.2-0.4,0.3c-0.1,0.1-0.1,0.2-0.2,0.3c0,0.1,0,0.2,0,0.4
			c0,0.1,0,0.2,0,0.3c0,0.1,0,0.2,0.1,0.3c0,0.1,0.1,0.1,0.1,0.2c0,0,0.1,0.1,0.2,0.1c0.1,0,0.2,0,0.3-0.1c0.1-0.1,0.3-0.2,0.5-0.3
			c0.2-0.1,0.4-0.2,0.7-0.3c0.3-0.1,0.6-0.1,0.9-0.1c0.3,0,0.5,0,0.7,0.1c0.2,0.1,0.3,0.1,0.4,0.3c0.1,0.1,0.2,0.3,0.2,0.4
			c0,0.2,0.1,0.4,0.1,0.6v0.4H148c-0.6,0-1.2,0-1.7,0.1c-0.5,0.1-0.9,0.2-1.2,0.5c-0.3,0.2-0.6,0.5-0.7,0.8
			c-0.2,0.3-0.2,0.7-0.2,1.1c0,0.4,0.1,0.7,0.2,1c0.1,0.3,0.3,0.5,0.5,0.7c0.2,0.2,0.5,0.3,0.8,0.4c0.3,0.1,0.7,0.2,1.1,0.2
			c0.5,0,0.9-0.1,1.3-0.3c0.4-0.2,0.7-0.4,1-0.7v0.6c0,0.1,0,0.1,0.1,0.2c0,0,0.1,0.1,0.2,0.1c0.1,0,0.3,0,0.5,0c0.2,0,0.4,0,0.5,0
			c0.1,0,0.2,0,0.3-0.1c0.1,0,0.1-0.1,0.1-0.2v-4.9C150.7,65.8,150.6,65.3,150.5,65z M148.7,69.3c-0.2,0.3-0.5,0.5-0.7,0.6
			c-0.2,0.1-0.5,0.2-0.8,0.2c-0.3,0-0.6-0.1-0.8-0.3c-0.2-0.2-0.3-0.4-0.3-0.7c0-0.2,0-0.3,0.1-0.5c0.1-0.1,0.2-0.3,0.3-0.4
			c0.1-0.1,0.3-0.2,0.6-0.2c0.2,0,0.5-0.1,0.8-0.1h0.8V69.3z"/>
		<path class="st1" d="M127.8,66.2c-0.4-0.4-0.8-0.7-1.3-1c-0.5-0.3-1-0.5-1.4-0.8c-0.5-0.2-1-0.4-1.4-0.6c-0.5-0.2-0.9-0.4-1.3-0.7
			c-0.4-0.2-0.7-0.5-0.9-0.8c-0.2-0.3-0.3-0.7-0.3-1.1c0-0.3,0-0.5,0.1-0.8c0.1-0.2,0.3-0.5,0.5-0.6c0.2-0.2,0.5-0.3,0.8-0.4
			c0.3-0.1,0.7-0.1,1.1-0.1c0.5,0,1,0.1,1.4,0.2c0.4,0.1,0.8,0.3,1.2,0.4c0.3,0.2,0.6,0.3,0.8,0.4c0.2,0.1,0.4,0.2,0.5,0.2
			c0.1,0,0.2,0,0.2-0.1c0.1-0.1,0.1-0.1,0.1-0.3c0-0.1,0.1-0.3,0.1-0.5c0-0.2,0-0.4,0-0.7c0-0.2,0-0.5,0-0.6c0-0.2,0-0.3,0-0.4
			c0-0.1-0.1-0.2-0.1-0.3c0-0.1-0.1-0.1-0.2-0.2c-0.1-0.1-0.3-0.2-0.6-0.4c-0.3-0.1-0.6-0.3-1-0.4c-0.4-0.1-0.8-0.2-1.2-0.3
			c-0.4-0.1-0.9-0.1-1.3-0.1c-0.8,0-1.6,0.1-2.4,0.3c-0.8,0.2-1.4,0.5-2,1c-0.6,0.4-1,1-1.3,1.7c-0.3,0.7-0.5,1.4-0.5,2.3
			c0,0.8,0.1,1.4,0.3,2c0.2,0.5,0.5,1,0.9,1.4c0.4,0.4,0.8,0.7,1.2,1c0.5,0.3,0.9,0.5,1.4,0.8c0.5,0.2,1,0.4,1.4,0.6
			c0.5,0.2,0.9,0.4,1.2,0.7c0.4,0.2,0.7,0.5,0.9,0.8c0.2,0.3,0.3,0.7,0.3,1.1c0,0.4-0.1,0.7-0.2,1c-0.1,0.3-0.3,0.5-0.6,0.7
			c-0.3,0.2-0.6,0.4-0.9,0.5c-0.4,0.1-0.8,0.2-1.2,0.2c-0.7,0-1.3-0.1-1.8-0.2c-0.5-0.2-1-0.3-1.4-0.5c-0.4-0.2-0.7-0.4-0.9-0.5
			c-0.2-0.2-0.4-0.2-0.6-0.2c-0.1,0-0.2,0-0.2,0.1c-0.1,0.1-0.1,0.1-0.2,0.3c0,0.1-0.1,0.3-0.1,0.5c0,0.2,0,0.4,0,0.7
			c0,0.4,0,0.8,0.1,1c0.1,0.2,0.1,0.4,0.3,0.5c0.1,0.1,0.3,0.3,0.6,0.4c0.3,0.2,0.6,0.3,1,0.5c0.4,0.1,0.9,0.3,1.4,0.4
			c0.5,0.1,1.1,0.2,1.8,0.2c0.9,0,1.8-0.1,2.6-0.4c0.8-0.2,1.5-0.6,2.2-1.1c0.6-0.5,1.1-1.1,1.5-1.8c0.4-0.7,0.5-1.6,0.5-2.5
			c0-0.7-0.1-1.4-0.3-1.9C128.5,67.1,128.2,66.6,127.8,66.2z"/>
	</g>
</g>
</svg>
