<?xml version="1.0" encoding="utf-8"?>
<!-- Generator: Adobe Illustrator 21.1.0, SVG Export Plug-In . SVG Version: 6.00 Build 0)  -->
<svg version="1.1" id="Livello_1" xmlns="http://www.w3.org/2000/svg" xmlns:xlink="http://www.w3.org/1999/xlink" x="0px" y="0px"
	 viewBox="0 0 16 16" style="enable-background:new 0 0 16 16;" xml:space="preserve">
<style type="text/css">
	.st0{fill:none;stroke:#1B3554;stroke-width:0.6667;stroke-linecap:round;stroke-linejoin:round;stroke-miterlimit:10;}
	.st1{fill:none;stroke:#FFFFFF;stroke-width:0.6667;stroke-linecap:round;stroke-linejoin:round;stroke-miterlimit:10;}
</style>
<g>
	<path class="st0" d="M13,13.9H2.4c-0.2,0-0.4-0.2-0.4-0.4V2.1c0-0.2,0.2-0.4,0.4-0.4H13c0.2,0,0.4,0.2,0.4,0.4v11.4
		C13.3,13.7,13.2,13.9,13,13.9z"/>
	<line class="st0" x1="2.4" y1="4.7" x2="13.3" y2="4.7"/>
	<g>
		<line class="st0" x1="4.8" y1="3" x2="4.8" y2="0.5"/>
		<line class="st0" x1="10.8" y1="3" x2="10.8" y2="0.5"/>
	</g>
	<g>
		<path class="st0" d="M5.4,8.6L5.4,8.6C5,8.6,4.6,8.2,4.6,7.7v0c0-0.5,0.4-0.9,0.9-0.9h0c0.5,0,0.9,0.4,0.9,0.9v0
			C6.3,8.2,5.9,8.6,5.4,8.6z"/>
		<path class="st0" d="M9.9,8.6L9.9,8.6C9.4,8.6,9,8.2,9,7.7v0c0-0.5,0.4-0.9,0.9-0.9h0c0.5,0,0.9,0.4,0.9,0.9v0
			C10.7,8.2,10.4,8.6,9.9,8.6z"/>
	</g>
	<g>
		<path class="st0" d="M5.4,11.7L5.4,11.7c-0.5,0-0.9-0.4-0.9-0.9v0C4.6,10.4,5,10,5.4,10h0c0.5,0,0.9,0.4,0.9,0.9v0
			C6.3,11.3,5.9,11.7,5.4,11.7z"/>
		<path class="st0" d="M9.9,11.7L9.9,11.7c-0.5,0-0.9-0.4-0.9-0.9v0C9,10.4,9.4,10,9.9,10h0c0.5,0,0.9,0.4,0.9,0.9v0
			C10.7,11.3,10.4,11.7,9.9,11.7z"/>
	</g>
</g>
</svg>
