<?xml version="1.0" encoding="utf-8"?>
<!-- Generator: Adobe Illustrator 21.1.0, SVG Export Plug-In . SVG Version: 6.00 Build 0)  -->
<svg version="1.1" id="Livello_1" xmlns="http://www.w3.org/2000/svg" xmlns:xlink="http://www.w3.org/1999/xlink" x="0px" y="0px"
	 viewBox="0 0 16 16" style="enable-background:new 0 0 16 16;" xml:space="preserve">
<style type="text/css">
	.st0{fill:none;stroke:#1B3554;stroke-width:0.6667;stroke-linecap:round;stroke-linejoin:round;stroke-miterlimit:10;}
	.st1{fill:none;stroke:#FFFFFF;stroke-width:0.6667;stroke-linecap:round;stroke-linejoin:round;stroke-miterlimit:10;}
</style>
<g>
	<path class="st0" d="M10.9,15.2h-5c-0.8,0-1.5-0.6-1.5-1.4V1.9c0-0.8,0.7-1.4,1.5-1.4h5c0.8,0,1.5,0.6,1.5,1.4v11.9
		C12.3,14.6,11.7,15.2,10.9,15.2z"/>
	<path class="st0" d="M8.4,13.1L8.4,13.1c-0.5,0-0.9-0.4-0.9-0.9v0c0-0.5,0.4-0.9,0.9-0.9h0c0.5,0,0.9,0.4,0.9,0.9v0
		C9.3,12.6,8.9,13.1,8.4,13.1z"/>
	<line class="st0" x1="7.9" y1="2.4" x2="8.8" y2="2.4"/>
</g>
</svg>
