<?xml version="1.0" encoding="utf-8"?>
<!-- Generator: Adobe Illustrator 21.1.0, SVG Export Plug-In . SVG Version: 6.00 Build 0)  -->
<svg version="1.1" id="Livello_1" xmlns="http://www.w3.org/2000/svg" xmlns:xlink="http://www.w3.org/1999/xlink" x="0px" y="0px"
	 viewBox="0 0 16 16" style="enable-background:new 0 0 16 16;" xml:space="preserve">
<style type="text/css">
	.st0{fill:none;stroke:#1B3554;stroke-width:0.6667;stroke-linecap:round;stroke-linejoin:round;stroke-miterlimit:10;}
	.st1{fill:none;stroke:#FFFFFF;stroke-width:0.6667;stroke-linecap:round;stroke-linejoin:round;stroke-miterlimit:10;}
</style>
<g>
	<path class="st1" d="M12.8,14H2.2c-0.2,0-0.4-0.2-0.4-0.4V2.3c0-0.2,0.2-0.4,0.4-0.4h10.6c0.2,0,0.4,0.2,0.4,0.4v11.4
		C13.1,13.8,13,14,12.8,14z"/>
	<line class="st1" x1="2.2" y1="4.9" x2="13.1" y2="4.9"/>
	<g>
		<line class="st1" x1="4.6" y1="3.1" x2="4.6" y2="0.7"/>
		<line class="st1" x1="10.6" y1="3.1" x2="10.6" y2="0.7"/>
	</g>
	<g>
		<path class="st1" d="M5.2,8.7L5.2,8.7c-0.5,0-0.9-0.4-0.9-0.9v0C4.4,7.4,4.7,7,5.2,7h0c0.5,0,0.9,0.4,0.9,0.9v0
			C6.1,8.3,5.7,8.7,5.2,8.7z"/>
		<path class="st1" d="M9.7,8.7L9.7,8.7c-0.5,0-0.9-0.4-0.9-0.9v0C8.8,7.4,9.2,7,9.7,7h0c0.5,0,0.9,0.4,0.9,0.9v0
			C10.5,8.3,10.1,8.7,9.7,8.7z"/>
	</g>
	<g>
		<path class="st1" d="M5.2,11.9L5.2,11.9c-0.5,0-0.9-0.4-0.9-0.9v0c0-0.5,0.4-0.9,0.9-0.9h0c0.5,0,0.9,0.4,0.9,0.9v0
			C6.1,11.5,5.7,11.9,5.2,11.9z"/>
		<path class="st1" d="M9.7,11.9L9.7,11.9c-0.5,0-0.9-0.4-0.9-0.9v0c0-0.5,0.4-0.9,0.9-0.9h0c0.5,0,0.9,0.4,0.9,0.9v0
			C10.5,11.5,10.1,11.9,9.7,11.9z"/>
	</g>
</g>
</svg>
