<?xml version="1.0" encoding="utf-8"?>
<!-- Generator: Adobe Illustrator 21.1.0, SVG Export Plug-In . SVG Version: 6.00 Build 0)  -->
<svg version="1.1" id="Livello_1" xmlns="http://www.w3.org/2000/svg" xmlns:xlink="http://www.w3.org/1999/xlink" x="0px" y="0px"
	 viewBox="0 0 16 16" style="enable-background:new 0 0 16 16;" xml:space="preserve">
<style type="text/css">
	.st0{fill:none;stroke:#1B3554;stroke-width:0.6667;stroke-linecap:round;stroke-linejoin:round;stroke-miterlimit:10;}
	.st1{fill:none;stroke:#FFFFFF;stroke-width:0.6667;stroke-linecap:round;stroke-linejoin:round;stroke-miterlimit:10;}
</style>
<g>
	<path class="st1" d="M10.6,15.3h-5c-0.8,0-1.5-0.6-1.5-1.4V2.1c0-0.8,0.7-1.4,1.5-1.4h5c0.8,0,1.5,0.6,1.5,1.4v11.9
		C12.1,14.7,11.5,15.3,10.6,15.3z"/>
	<path class="st1" d="M8.2,13.2L8.2,13.2c-0.5,0-0.9-0.4-0.9-0.9v0c0-0.5,0.4-0.9,0.9-0.9h0c0.5,0,0.9,0.4,0.9,0.9v0
		C9.1,12.8,8.7,13.2,8.2,13.2z"/>
	<line class="st1" x1="7.7" y1="2.5" x2="8.6" y2="2.5"/>
</g>
</svg>
